<?xml version="1.0" encoding="UTF-8" standalone="no"?>
<svg
   viewBox="0 0 24 24"
   version="1.1"
   id="svg2"
   sodipodi:docname="portalplanner.svg"
   inkscape:version="1.4.2 (ebf0e940, 2025-05-08)"
   xmlns:inkscape="http://www.inkscape.org/namespaces/inkscape"
   xmlns:sodipodi="http://sodipodi.sourceforge.net/DTD/sodipodi-0.dtd"
   xmlns="http://www.w3.org/2000/svg"
   xmlns:svg="http://www.w3.org/2000/svg">
  <defs
     id="defs2" />
  <sodipodi:namedview
     id="namedview2"
     pagecolor="#505050"
     bordercolor="#eeeeee"
     borderopacity="1"
     inkscape:showpageshadow="0"
     inkscape:pageopacity="0"
     inkscape:pagecheckerboard="0"
     inkscape:deskcolor="#d1d1d1"
     inkscape:zoom="8.6041667"
     inkscape:cx="10.11138"
     inkscape:cy="2.7893462"
     inkscape:window-width="1920"
     inkscape:window-height="1027"
     inkscape:window-x="0"
     inkscape:window-y="25"
     inkscape:window-maximized="1"
     inkscape:current-layer="svg2" />
  <path
     fill="white"
     d="M 4 2 L 4 22 L 14.527344 22 A 6 6 0 0 1 13 18 L 8 18 L 8 6 L 16 6 L 16 12.804688 A 6 6 0 0 1 19 12 A 6 6 0 0 1 20 12.083984 L 20 2 L 4 2 z "
     id="path1"
     style="stroke:#ffffff;stroke-opacity:1;fill:#000000;fill-opacity:1;stroke-width:0.5;stroke-dasharray:none;stroke-linecap:round;stroke-linejoin:round" />
  <path
     fill="white"
     d="m 15,17 h 3 v -3 h 2 v 3 h 3 v 2 h -3 v 3 h -2 v -3 h -3 z"
     id="path2"
     style="stroke:#ffffff;stroke-opacity:1;stroke-width:0.5;stroke-dasharray:none;fill:#000000;fill-opacity:1;stroke-linecap:round;stroke-linejoin:round" />
  <path
     id="rect2"
     style="fill:#7f00ff;fill-opacity:1;stroke:#ffffff;stroke-width:0.48933;stroke-linecap:round;stroke-linejoin:round;stroke-dasharray:none;stroke-opacity:1"
     d="M 8 6 L 8 18 L 13 18 A 6 6 0 0 1 16 12.804688 L 16 6 L 8 6 z " />
</svg>
